<svg>
<symbol viewBox="0 0 16 16" fill="none" xmlns="http://www.w3.org/2000/svg" id="shopping">
<g clip-path="url(#clip0_812_1182)">
<path d="M4.8 12.8C3.92 12.8 3.2 13.52 3.2 14.4C3.2 15.28 3.92 16 4.8 16C5.68 16 6.4 15.28 6.4 14.4C6.4 13.52 5.68 12.8 4.8 12.8ZM0 0V1.6H1.6L4.48 7.68L3.36 9.6C3.28 9.84 3.2 10.16 3.2 10.4C3.2 11.28 3.92 12 4.8 12H14.4V10.4H5.12C5.04 10.4 4.96 10.32 4.96 10.24V10.16L5.68 8.79997H11.6C12.24 8.79997 12.72 8.47997 12.96 7.99997L15.84 2.8C16 2.64 16 2.56 16 2.4C16 1.92 15.68 1.6 15.2 1.6H3.36L2.64 0H0ZM12.8 12.8C11.92 12.8 11.2 13.52 11.2 14.4C11.2 15.28 11.92 16 12.8 16C13.68 16 14.4 15.28 14.4 14.4C14.4 13.52 13.68 12.8 12.8 12.8Z" fill="white"/>
</g>
<defs>
<clipPath id="clip0_812_1182">
<rect width="16" height="16" fill="white"/>
</clipPath>
</defs>
</symbol>

<symbol viewBox="0 0 32 33" fill="none" xmlns="http://www.w3.org/2000/svg" id="list">
<g clip-path="url(#clip0_812_1256)">
<path d="M12.4955 9.31667H25.0667C25.3611 9.31667 25.6 9.07827 25.6 8.78333C25.6 8.4884 25.3611 8.25 25.0667 8.25H12.4955C12.2011 8.25 11.9622 8.4884 11.9622 8.78333C11.9622 9.07827 12.2011 9.31667 12.4955 9.31667Z" fill="black"/>
<path d="M12.4955 17.3167H25.0667C25.3611 17.3167 25.6 17.0783 25.6 16.7833C25.6 16.4884 25.3611 16.25 25.0667 16.25H12.4955C12.2011 16.25 11.9622 16.4884 11.9622 16.7833C11.9622 17.0783 12.2011 17.3167 12.4955 17.3167Z" fill="black"/>
<path d="M12.4955 25.3167H25.0667C25.3611 25.3167 25.6 25.0783 25.6 24.7833C25.6 24.4884 25.3611 24.25 25.0667 24.25H12.4955C12.2011 24.25 11.9622 24.4884 11.9622 24.7833C11.9622 25.0783 12.2011 25.3167 12.4955 25.3167Z" fill="black"/>
<path d="M31.4667 0.25H0.533333C0.238933 0.25 0 0.4884 0 0.783333V31.7167C0 32.0116 0.238933 32.25 0.533333 32.25H31.4667C31.7611 32.25 32 32.0116 32 31.7167V0.783333C32 0.4884 31.7611 0.25 31.4667 0.25ZM30.9333 31.1833H1.06667V1.31667H30.9333V31.1833Z" fill="black"/>
<path d="M6.66723 10.1028L7.96217 9.42177L9.2571 10.1028L9.01017 8.6607L10.0576 7.63883L8.60963 7.4287L7.96217 6.1167L7.3147 7.4287L5.8667 7.63883L6.9147 8.6607L6.66723 10.1028Z" fill="black"/>
<path d="M6.66723 18.147L7.96217 17.466L9.2571 18.147L9.01017 16.7049L10.0576 15.6836L8.60963 15.4729L7.96217 14.1609L7.3147 15.4729L5.8667 15.6836L6.9147 16.7049L6.66723 18.147Z" fill="black"/>
<path d="M6.66723 26.3834L7.96217 25.7023L9.2571 26.3834L9.01017 24.9412L10.0576 23.9199L8.60963 23.7092L7.96217 22.3972L7.3147 23.7092L5.8667 23.9199L6.9147 24.9412L6.66723 26.3834Z" fill="black"/>
</g>
<defs>
<clipPath id="clip0_812_1256">
<rect width="32" height="32" fill="white" transform="translate(0 0.25)"/>
</clipPath>
</defs>
</symbol>

<symbol viewBox="0 0 32 33" fill="none" xmlns="http://www.w3.org/2000/svg" id ="time">
<g clip-path="url(#clip0_812_1250)">
<path d="M16 0.25C7.1776 0.25 0 7.4276 0 16.25C0 25.0724 7.1776 32.25 16 32.25C24.8224 32.25 32 25.0724 32 16.25C32 7.4276 24.8224 0.25 16 0.25ZM16 31.1833C7.76587 31.1833 1.06667 24.4841 1.06667 16.25C1.06667 8.01587 7.76587 1.31667 16 1.31667C24.2341 1.31667 30.9333 8.01587 30.9333 16.25C30.9333 24.4841 24.2341 31.1833 16 31.1833Z" fill="black"/>
<path d="M16 3.44995C15.7056 3.44995 15.4667 3.68835 15.4667 3.98328V16.25H7.46668C7.17228 16.25 6.93335 16.4884 6.93335 16.7833C6.93335 17.0782 7.17228 17.3166 7.46668 17.3166H16C16.2944 17.3166 16.5333 17.0782 16.5333 16.7833V3.98328C16.5333 3.68835 16.2944 3.44995 16 3.44995Z" fill="black"/>
</g>
<defs>
<clipPath id="clip0_812_1250">
<rect width="32" height="32" fill="white" transform="translate(0 0.25)"/>
</clipPath>
</defs>
</symbol>

<symbol viewBox="0 0 32 33" fill="none" xmlns="http://www.w3.org/2000/svg" id="placeholder">
<g clip-path="url(#clip0_812_1243)">
<path d="M15.9999 14.1166C18.0586 14.1166 19.7333 12.4414 19.7333 10.3832C19.7333 8.3251 18.0586 6.6499 15.9999 6.6499C13.9413 6.6499 12.2666 8.3251 12.2666 10.3832C12.2666 12.4414 13.9413 14.1166 15.9999 14.1166ZM15.9999 7.71657C17.4703 7.71657 18.6666 8.91284 18.6666 10.3832C18.6666 11.8536 17.4703 13.0499 15.9999 13.0499C14.5295 13.0499 13.3333 11.8536 13.3333 10.3832C13.3333 8.91284 14.5295 7.71657 15.9999 7.71657Z" fill="black"/>
<path d="M15.9055 29.4537L24.0874 17.6367C27.1562 13.5455 26.7124 6.82067 23.1375 3.24627C21.2058 1.314 18.6372 0.25 15.9055 0.25C13.1738 0.25 10.6052 1.314 8.67349 3.24573C5.09855 6.82013 4.65482 13.5449 7.71135 17.6201L15.9055 29.4537ZM9.42762 3.99987C11.1583 2.26973 13.4586 1.31667 15.9055 1.31667C18.3524 1.31667 20.6527 2.26973 22.3834 3.99987C25.61 7.226 26.0074 13.2996 23.2223 17.0127L15.9055 27.5796L8.57696 16.9967C5.80362 13.2996 6.20149 7.226 9.42762 3.99987Z" fill="black"/>
<path d="M22.4624 23.187C22.1691 23.1513 21.9045 23.3614 21.8704 23.6542C21.8363 23.947 22.0453 24.2121 22.3376 24.2462C27.9461 24.9065 30.9333 26.6857 30.9333 27.7166C30.9333 29.1641 25.2523 31.1833 16 31.1833C6.74773 31.1833 1.06667 29.1641 1.06667 27.7166C1.06667 26.6857 4.05387 24.9065 9.6624 24.2462C9.95467 24.2121 10.1637 23.9465 10.1296 23.6542C10.0949 23.3614 9.8304 23.1502 9.5376 23.187C3.92213 23.8484 0 25.7108 0 27.7166C0 29.9694 5.496 32.25 16 32.25C26.504 32.25 32 29.9694 32 27.7166C32 25.7108 28.0779 23.8484 22.4624 23.187Z" fill="black"/>
</g>
<defs>
<clipPath id="clip0_812_1243">
<rect width="32" height="32" fill="white" transform="translate(0 0.25)"/>
</clipPath>
</defs>
</symbol>

<symbol viewBox="0 0 24 24" fill="none" xmlns="http://www.w3.org/2000/svg" id="star">
<g clip-path="url(#clip0_812_1204)">
<path d="M4.84864 23.4333C4.75971 23.4333 4.67078 23.4058 4.59604 23.3512C4.46372 23.255 4.39756 23.0922 4.42549 22.9311L5.75336 15.1907L0.12957 9.70953C0.0127211 9.59526 -0.0293789 9.42472 0.0208834 9.26963C0.0715752 9.11412 0.206037 9.00071 0.367994 8.97708L8.13931 7.84768L11.6151 0.805386C11.6873 0.658466 11.8368 0.565674 12 0.565674C12.1637 0.565674 12.3132 0.658466 12.385 0.805386L15.8604 7.84768L23.6321 8.97708C23.7941 9.00071 23.9281 9.11369 23.9792 9.26963C24.0295 9.42472 23.9878 9.59569 23.8705 9.70953L18.2467 15.1916L19.5742 22.9315C19.6017 23.0926 19.5355 23.2554 19.4036 23.3517C19.2713 23.4487 19.0956 23.4612 18.9508 23.3843L12 19.7302L5.0484 23.3843C4.98567 23.4169 4.91694 23.4333 4.84864 23.4333ZM1.35262 9.7018L6.51459 14.7336C6.61555 14.832 6.66194 14.9746 6.63788 15.1138L5.41913 22.2184L11.8003 18.8641C11.9253 18.798 12.0744 18.798 12.2002 18.8641L18.5805 22.2184L17.3622 15.1138C17.3382 14.9746 17.3846 14.8324 17.4855 14.7336L22.6475 9.7018L15.5141 8.6652C15.3741 8.64501 15.2533 8.55694 15.1906 8.43021L12 1.96657L8.80947 8.43064C8.74675 8.55737 8.62604 8.64544 8.48599 8.66563L1.35262 9.7018Z" fill="black"/>
</g>
<defs>
<clipPath id="clip0_812_1204">
<rect width="24" height="24" fill="white"/>
</clipPath>
</defs>
</symbol>

<symbol viewBox="0 0 19 19" fill="none" xmlns="http://www.w3.org/2000/svg" xmlns:xlink="http://www.w3.org/1999/xlink" id="compare">
	<defs/>
	<path id="compare" d="M19 0L14 0L14 19L19 19L19 0ZM15 1L15 18L18 18L18 1L15 1ZM5 4.22217L0 4.22217L0 19L5 19L5 4.22217ZM1 5.22217L1 18L4 18L4 5.22217L1 5.22217ZM7 8.44434L12 8.44434L12 19L7 19L7 8.44434ZM8 18L8 9.44434L11 9.44434L11 18L8 18Z" clip-rule="evenodd" fill="#000000" fill-opacity="1.000000" fill-rule="evenodd"/>
</symbol>

<symbol viewBox="0 0 32 32" fill="none" xmlns="http://www.w3.org/2000/svg" id="diamond">
<g clip-path="url(#clip0_812_1063)">
<path d="M31.9925 10.7567C31.9962 10.7349 31.9984 10.7135 31.9994 10.6911C32.0005 10.665 32 10.6399 31.9978 10.6138C31.9957 10.5914 31.9925 10.57 31.9872 10.5481C31.9813 10.5225 31.9733 10.498 31.9637 10.4735C31.9589 10.4607 31.9578 10.4473 31.9519 10.4351C31.9477 10.426 31.9402 10.4191 31.9354 10.41C31.9306 10.4009 31.9285 10.3913 31.9231 10.3822L26.5886 1.84692C26.564 1.80797 26.5352 1.77277 26.5027 1.74183C26.5021 1.74129 26.5016 1.74129 26.5011 1.74076C26.4552 1.69755 26.4008 1.66661 26.3426 1.64207C26.3352 1.63887 26.3304 1.63247 26.3224 1.62927C26.3165 1.62713 26.3101 1.6282 26.3042 1.6266C26.2503 1.60846 26.1949 1.59619 26.1367 1.59619H5.86532C5.80771 1.59619 5.75276 1.60846 5.69995 1.62607C5.69408 1.62767 5.68821 1.6266 5.68288 1.62873C5.67488 1.6314 5.67008 1.6378 5.66261 1.641C5.60713 1.66394 5.55485 1.69381 5.5095 1.73436C5.50684 1.73702 5.5031 1.73862 5.50044 1.74076C5.46736 1.7717 5.43802 1.80744 5.41348 1.84638L0.0789037 10.3817C0.0735691 10.3902 0.0714353 10.4004 0.0666342 10.4094C0.0618331 10.4185 0.0543647 10.4255 0.050097 10.4345C0.044229 10.4468 0.043162 10.4601 0.0378275 10.4729C0.0282252 10.4975 0.0202234 10.522 0.0143553 10.5476C0.0095542 10.5695 0.00582 10.5914 0.00368616 10.6138C-4.80409e-05 10.6399 -0.000581499 10.6655 0.000485417 10.6911C0.00155233 10.7135 0.00368616 10.7349 0.00742037 10.7567C0.011688 10.7823 0.018623 10.8074 0.0271583 10.8325C0.0340933 10.8533 0.0415617 10.8736 0.0511639 10.8938C0.055965 10.9034 0.0575654 10.9141 0.0629 10.9237C0.0714353 10.9392 0.0842383 10.9509 0.0938405 10.9653C0.101309 10.9765 0.105577 10.9888 0.114645 10.9995L15.5791 30.1965C15.5801 30.1981 15.5812 30.1991 15.5823 30.2002L15.5849 30.2039C15.5865 30.2061 15.5892 30.2066 15.5908 30.2087C15.6345 30.2615 15.6889 30.3016 15.7482 30.3336C15.7642 30.3421 15.7791 30.3496 15.7956 30.3565C15.8602 30.3837 15.9285 30.4029 16 30.4029C16.0608 30.4029 16.1221 30.3922 16.1829 30.3704C16.192 30.3672 16.1979 30.3597 16.2069 30.356C16.2341 30.3448 16.2555 30.3266 16.28 30.3112C16.3206 30.2856 16.3584 30.2589 16.3899 30.2242C16.3974 30.2162 16.4086 30.2125 16.4155 30.2039L31.8858 10.9995C31.8943 10.9888 31.8986 10.976 31.9066 10.9653C31.9167 10.9509 31.929 10.9392 31.9375 10.9237C31.9429 10.9141 31.9445 10.9034 31.9493 10.8938C31.9589 10.8736 31.9663 10.8538 31.9733 10.8325C31.9807 10.8074 31.9882 10.7829 31.9925 10.7567ZM17.1213 2.66364H25.368L22.7754 9.6226L17.1213 2.66364ZM21.8141 10.132H10.1863L16 2.97678L21.8141 10.132ZM9.18716 9.66901L6.6271 2.66364H14.8792L9.18716 9.66901ZM22.1881 11.199L15.9066 28.0594L9.74569 11.199H22.1881ZM26.2573 3.33206L30.5073 10.1326H23.7239L26.2573 3.33206ZM5.73782 3.339L8.22 10.132H1.49257L5.73782 3.339ZM8.60996 11.199L14.3921 27.0235L1.6446 11.199H8.60996ZM17.2787 27.4321L23.3265 11.199H30.3553L17.2787 27.4321Z" fill="black"/>
</g>
<defs>
<clipPath id="clip0_812_1063">
<rect width="32" height="32" fill="white"/>
</clipPath>
</defs>
</symbol>

<symbol  viewBox="0 0 32 32" fill="none" xmlns="http://www.w3.org/2000/svg" id="calendar">
<g clip-path="url(#clip0_812_1031)">
<path d="M23.6684 2.48278C23.4119 1.2254 22.2979 0.275879 20.9655 0.275879C20.6604 0.275879 20.4138 0.5225 20.4138 0.827603C20.4138 1.13271 20.6604 1.37933 20.9655 1.37933C21.8781 1.37933 22.6207 2.12195 22.6207 3.0345C22.6207 3.94705 21.8781 4.68967 20.9655 4.68967C20.6604 4.68967 20.4138 4.93629 20.4138 5.2414C20.4138 5.5465 20.6604 5.79312 20.9655 5.79312C22.2974 5.79312 23.4119 4.8436 23.6684 3.58622H30.8966V8.55174H1.10345V3.58622H8.82759H10.4828C10.7879 3.58622 11.0345 3.3396 11.0345 3.0345C11.0345 2.7294 10.7879 2.48278 10.4828 2.48278H9.48083C9.70924 1.84167 10.3161 1.37933 11.0345 1.37933C11.947 1.37933 12.6897 2.12195 12.6897 3.0345C12.6897 3.94705 11.947 4.68967 11.0345 4.68967C10.7294 4.68967 10.4828 4.93629 10.4828 5.2414C10.4828 5.5465 10.7294 5.79312 11.0345 5.79312C12.5556 5.79312 13.7931 4.5556 13.7931 3.0345C13.7931 1.5134 12.5556 0.275879 11.0345 0.275879C9.70262 0.275879 8.58814 1.2254 8.33159 2.48278H0V9.65519V31.7242H32V9.65519V2.48278H23.6684ZM30.8966 30.6207H1.10345V9.65519H30.8966V30.6207Z" fill="black"/>
<path d="M14.3449 1.37933C15.2575 1.37933 16.0001 2.12195 16.0001 3.0345C16.0001 3.94705 15.2575 4.68967 14.3449 4.68967C14.0398 4.68967 13.7932 4.93629 13.7932 5.2414C13.7932 5.5465 14.0398 5.79312 14.3449 5.79312C15.866 5.79312 17.1036 4.5556 17.1036 3.0345C17.1036 1.5134 15.866 0.275879 14.3449 0.275879C14.0398 0.275879 13.7932 0.5225 13.7932 0.827603C13.7932 1.13271 14.0398 1.37933 14.3449 1.37933Z" fill="black"/>
<path d="M17.6552 1.37933C18.5678 1.37933 19.3104 2.12195 19.3104 3.0345C19.3104 3.94705 18.5678 4.68967 17.6552 4.68967C17.3501 4.68967 17.1035 4.93629 17.1035 5.2414C17.1035 5.5465 17.3501 5.79312 17.6552 5.79312C19.1763 5.79312 20.4139 4.5556 20.4139 3.0345C20.4139 1.5134 19.1763 0.275879 17.6552 0.275879C17.3501 0.275879 17.1035 0.5225 17.1035 0.827603C17.1035 1.13271 17.3501 1.37933 17.6552 1.37933Z" fill="black"/>
<path d="M12.1379 14.0688C12.4426 14.0688 12.6896 13.8218 12.6896 13.5171C12.6896 13.2123 12.4426 12.9653 12.1379 12.9653C11.8332 12.9653 11.5862 13.2123 11.5862 13.5171C11.5862 13.8218 11.8332 14.0688 12.1379 14.0688Z" fill="black"/>
<path d="M16 14.0688C16.3047 14.0688 16.5517 13.8218 16.5517 13.5171C16.5517 13.2123 16.3047 12.9653 16 12.9653C15.6953 12.9653 15.4482 13.2123 15.4482 13.5171C15.4482 13.8218 15.6953 14.0688 16 14.0688Z" fill="black"/>
<path d="M19.862 14.0688C20.1667 14.0688 20.4138 13.8218 20.4138 13.5171C20.4138 13.2123 20.1667 12.9653 19.862 12.9653C19.5573 12.9653 19.3103 13.2123 19.3103 13.5171C19.3103 13.8218 19.5573 14.0688 19.862 14.0688Z" fill="black"/>
<path d="M23.7241 14.0688C24.0288 14.0688 24.2758 13.8218 24.2758 13.5171C24.2758 13.2123 24.0288 12.9653 23.7241 12.9653C23.4194 12.9653 23.1724 13.2123 23.1724 13.5171C23.1724 13.8218 23.4194 14.0688 23.7241 14.0688Z" fill="black"/>
<path d="M27.5861 14.0688C27.8909 14.0688 28.1379 13.8218 28.1379 13.5171C28.1379 13.2123 27.8909 12.9653 27.5861 12.9653C27.2814 12.9653 27.0344 13.2123 27.0344 13.5171C27.0344 13.8218 27.2814 14.0688 27.5861 14.0688Z" fill="black"/>
<path d="M4.41378 18.4828C4.71849 18.4828 4.96551 18.2358 4.96551 17.9311C4.96551 17.6264 4.71849 17.3794 4.41378 17.3794C4.10908 17.3794 3.86206 17.6264 3.86206 17.9311C3.86206 18.2358 4.10908 18.4828 4.41378 18.4828Z" fill="black"/>
<path d="M8.27585 18.4828C8.58055 18.4828 8.82757 18.2358 8.82757 17.9311C8.82757 17.6264 8.58055 17.3794 8.27585 17.3794C7.97114 17.3794 7.72412 17.6264 7.72412 17.9311C7.72412 18.2358 7.97114 18.4828 8.27585 18.4828Z" fill="black"/>
<path d="M12.1379 18.4828C12.4426 18.4828 12.6896 18.2358 12.6896 17.9311C12.6896 17.6264 12.4426 17.3794 12.1379 17.3794C11.8332 17.3794 11.5862 17.6264 11.5862 17.9311C11.5862 18.2358 11.8332 18.4828 12.1379 18.4828Z" fill="black"/>
<path d="M16 18.4828C16.3047 18.4828 16.5517 18.2358 16.5517 17.9311C16.5517 17.6264 16.3047 17.3794 16 17.3794C15.6953 17.3794 15.4482 17.6264 15.4482 17.9311C15.4482 18.2358 15.6953 18.4828 16 18.4828Z" fill="black"/>
<path d="M19.862 18.4828C20.1667 18.4828 20.4138 18.2358 20.4138 17.9311C20.4138 17.6264 20.1667 17.3794 19.862 17.3794C19.5573 17.3794 19.3103 17.6264 19.3103 17.9311C19.3103 18.2358 19.5573 18.4828 19.862 18.4828Z" fill="black"/>
<path d="M23.7241 18.4828C24.0288 18.4828 24.2758 18.2358 24.2758 17.9311C24.2758 17.6264 24.0288 17.3794 23.7241 17.3794C23.4194 17.3794 23.1724 17.6264 23.1724 17.9311C23.1724 18.2358 23.4194 18.4828 23.7241 18.4828Z" fill="black"/>
<path d="M27.5861 18.4828C27.8909 18.4828 28.1379 18.2358 28.1379 17.9311C28.1379 17.6264 27.8909 17.3794 27.5861 17.3794C27.2814 17.3794 27.0344 17.6264 27.0344 17.9311C27.0344 18.2358 27.2814 18.4828 27.5861 18.4828Z" fill="black"/>
<path d="M4.41378 22.3447C4.71849 22.3447 4.96551 22.0976 4.96551 21.7929C4.96551 21.4882 4.71849 21.2412 4.41378 21.2412C4.10908 21.2412 3.86206 21.4882 3.86206 21.7929C3.86206 22.0976 4.10908 22.3447 4.41378 22.3447Z" fill="black"/>
<path d="M8.27585 22.3447C8.58055 22.3447 8.82757 22.0976 8.82757 21.7929C8.82757 21.4882 8.58055 21.2412 8.27585 21.2412C7.97114 21.2412 7.72412 21.4882 7.72412 21.7929C7.72412 22.0976 7.97114 22.3447 8.27585 22.3447Z" fill="black"/>
<path d="M12.1379 22.3447C12.4426 22.3447 12.6896 22.0976 12.6896 21.7929C12.6896 21.4882 12.4426 21.2412 12.1379 21.2412C11.8332 21.2412 11.5862 21.4882 11.5862 21.7929C11.5862 22.0976 11.8332 22.3447 12.1379 22.3447Z" fill="black"/>
<path d="M16 22.3447C16.3047 22.3447 16.5517 22.0976 16.5517 21.7929C16.5517 21.4882 16.3047 21.2412 16 21.2412C15.6953 21.2412 15.4482 21.4882 15.4482 21.7929C15.4482 22.0976 15.6953 22.3447 16 22.3447Z" fill="black"/>
<path d="M19.862 22.3447C20.1667 22.3447 20.4138 22.0976 20.4138 21.7929C20.4138 21.4882 20.1667 21.2412 19.862 21.2412C19.5573 21.2412 19.3103 21.4882 19.3103 21.7929C19.3103 22.0976 19.5573 22.3447 19.862 22.3447Z" fill="black"/>
<path d="M23.7241 22.3447C24.0288 22.3447 24.2758 22.0976 24.2758 21.7929C24.2758 21.4882 24.0288 21.2412 23.7241 21.2412C23.4194 21.2412 23.1724 21.4882 23.1724 21.7929C23.1724 22.0976 23.4194 22.3447 23.7241 22.3447Z" fill="black"/>
<path d="M27.5861 22.3447C27.8909 22.3447 28.1379 22.0976 28.1379 21.7929C28.1379 21.4882 27.8909 21.2412 27.5861 21.2412C27.2814 21.2412 27.0344 21.4882 27.0344 21.7929C27.0344 22.0976 27.2814 22.3447 27.5861 22.3447Z" fill="black"/>
<path d="M4.41378 26.7587C4.71849 26.7587 4.96551 26.5117 4.96551 26.207C4.96551 25.9023 4.71849 25.6553 4.41378 25.6553C4.10908 25.6553 3.86206 25.9023 3.86206 26.207C3.86206 26.5117 4.10908 26.7587 4.41378 26.7587Z" fill="black"/>
<path d="M8.27585 26.7587C8.58055 26.7587 8.82757 26.5117 8.82757 26.207C8.82757 25.9023 8.58055 25.6553 8.27585 25.6553C7.97114 25.6553 7.72412 25.9023 7.72412 26.207C7.72412 26.5117 7.97114 26.7587 8.27585 26.7587Z" fill="black"/>
<path d="M12.1379 26.7587C12.4426 26.7587 12.6896 26.5117 12.6896 26.207C12.6896 25.9023 12.4426 25.6553 12.1379 25.6553C11.8332 25.6553 11.5862 25.9023 11.5862 26.207C11.5862 26.5117 11.8332 26.7587 12.1379 26.7587Z" fill="black"/>
<path d="M16 26.7587C16.3047 26.7587 16.5517 26.5117 16.5517 26.207C16.5517 25.9023 16.3047 25.6553 16 25.6553C15.6953 25.6553 15.4482 25.9023 15.4482 26.207C15.4482 26.5117 15.6953 26.7587 16 26.7587Z" fill="black"/>
<path d="M19.862 26.7587C20.1667 26.7587 20.4138 26.5117 20.4138 26.207C20.4138 25.9023 20.1667 25.6553 19.862 25.6553C19.5573 25.6553 19.3103 25.9023 19.3103 26.207C19.3103 26.5117 19.5573 26.7587 19.862 26.7587Z" fill="black"/>
</g>
<defs>
<clipPath id="clip0_812_1031">
<rect width="32" height="32" fill="white"/>
</clipPath>
</defs>
</symbol>

<symbol viewBox="0 0 32 32" fill="none" xmlns="http://www.w3.org/2000/svg" id="umbrella">
<path d="M29.3062 15.0672C29.3158 15.0304 29.327 14.9952 29.3286 14.9568C29.3291 14.9488 29.3334 14.9419 29.3334 14.9333C29.3334 7.76 23.639 1.89493 16.5334 1.61333V0.533333C16.5334 0.2384 16.2945 0 16.0001 0C15.7057 0 15.4667 0.2384 15.4667 0.533333V1.61333C8.36115 1.89493 2.66675 7.76 2.66675 14.9333C2.66675 14.9419 2.67101 14.9488 2.67155 14.9573C2.67315 14.9952 2.68381 15.0304 2.69395 15.0677C2.70248 15.0992 2.70728 15.1307 2.72061 15.1595C2.73395 15.1877 2.75475 15.2112 2.77288 15.2368C2.79528 15.2683 2.81608 15.2997 2.84488 15.3259C2.85075 15.3312 2.85341 15.3392 2.85981 15.3445C2.87901 15.3605 2.90248 15.3659 2.92275 15.3787C2.95421 15.3984 2.98408 15.4181 3.01981 15.4309C3.05715 15.4448 3.09501 15.4491 3.13341 15.4539C3.15635 15.456 3.17661 15.4667 3.20008 15.4667C3.20808 15.4667 3.21448 15.4624 3.22248 15.4624C3.26301 15.4608 3.30088 15.4496 3.33981 15.4389C3.36861 15.4309 3.39795 15.4267 3.42408 15.4139C3.45448 15.4 3.47955 15.3776 3.50728 15.3579C3.53661 15.3365 3.56648 15.3168 3.59101 15.2901C3.59688 15.2837 3.60488 15.2811 3.61075 15.2741C4.36275 14.3664 5.35368 13.8667 6.40008 13.8667C7.44648 13.8667 8.43741 14.3664 9.18941 15.2741C9.19955 15.2864 9.21501 15.2912 9.22621 15.3024C9.23902 15.3152 9.24541 15.3323 9.25981 15.344C9.28115 15.3616 9.30675 15.368 9.32915 15.3819C9.35635 15.3984 9.38141 15.4149 9.41021 15.4256C9.45395 15.4427 9.49768 15.4496 9.54302 15.4544C9.56275 15.4565 9.58088 15.4667 9.60008 15.4667C9.60861 15.4667 9.61661 15.4629 9.62461 15.4624C9.65181 15.4613 9.67688 15.4544 9.70355 15.4491C9.74035 15.4416 9.77555 15.4331 9.81021 15.4176C9.83688 15.4059 9.86088 15.3909 9.88542 15.3744C9.90302 15.3632 9.92275 15.3573 9.93928 15.3435C9.95208 15.3328 9.95795 15.3179 9.96968 15.3061C9.98195 15.2939 9.99848 15.2875 10.0097 15.2736C10.7627 14.3664 11.7537 13.8667 12.8001 13.8667C13.7921 13.8667 14.7307 14.32 15.4667 15.1392V29.3333C15.4667 30.2155 14.7489 30.9333 13.8667 30.9333C12.9846 30.9333 12.2667 30.2155 12.2667 29.3333C12.2667 29.0384 12.0278 28.8 11.7334 28.8C11.439 28.8 11.2001 29.0384 11.2001 29.3333C11.2001 30.8037 12.3963 32 13.8667 32C15.3371 32 16.5334 30.8037 16.5334 29.3333V15.1392C17.2694 14.32 18.2081 13.8667 19.2001 13.8667C20.2465 13.8667 21.2374 14.3664 21.9894 15.2741C21.9995 15.2864 22.015 15.2912 22.0262 15.3024C22.039 15.3152 22.0454 15.3323 22.0598 15.344C22.0811 15.3616 22.1067 15.3675 22.1291 15.3813C22.1563 15.3979 22.1814 15.4144 22.2107 15.4256C22.254 15.4421 22.2977 15.4496 22.3435 15.4544C22.3627 15.4565 22.3809 15.4667 22.4001 15.4667C22.4086 15.4667 22.4166 15.4629 22.4246 15.4624C22.4518 15.4613 22.4774 15.4544 22.5041 15.4485C22.5403 15.4411 22.5756 15.4325 22.6102 15.4176C22.6374 15.4059 22.6614 15.3904 22.6859 15.3744C22.7035 15.3632 22.7233 15.3573 22.7398 15.344C22.7526 15.3333 22.7585 15.3184 22.7697 15.3067C22.7819 15.2944 22.7985 15.288 22.8102 15.2741C23.5627 14.3664 24.5537 13.8667 25.6001 13.8667C26.6465 13.8667 27.6374 14.3664 28.3894 15.2741C28.3947 15.2805 28.4022 15.2821 28.4081 15.2885C28.4454 15.3296 28.4902 15.3605 28.5387 15.3888C28.5553 15.3984 28.5681 15.4128 28.5857 15.4203C28.6513 15.4491 28.7233 15.4667 28.8001 15.4667C28.8657 15.4667 28.9307 15.4523 28.9926 15.4277C29.0166 15.4181 29.0364 15.4027 29.0588 15.3899C29.0859 15.3744 29.1153 15.3643 29.1398 15.3435C29.1462 15.3381 29.1489 15.3307 29.1548 15.3248C29.1835 15.2987 29.2038 15.2677 29.2267 15.2357C29.2449 15.2101 29.2657 15.1861 29.279 15.1584C29.2929 15.1301 29.2982 15.0987 29.3062 15.0672ZM25.6001 12.8C24.4171 12.8 23.3003 13.2773 22.4001 14.1515C21.4998 13.2773 20.383 12.8 19.2001 12.8C18.0171 12.8 16.9003 13.2773 16.0001 14.1515C15.0998 13.2773 13.983 12.8 12.8001 12.8C11.6171 12.8 10.5003 13.2773 9.60008 14.1515C8.69982 13.2773 7.58301 12.8 6.40008 12.8C5.46675 12.8 4.57715 13.1019 3.80008 13.656C4.44115 7.49013 9.66782 2.66667 16.0001 2.66667C22.3323 2.66667 27.559 7.49013 28.2001 13.656C27.423 13.1019 26.5334 12.8 25.6001 12.8Z" fill="black"/>
</symbol>

<symbol viewBox="0 0 32 32" fill="none" xmlns="http://www.w3.org/2000/svg" id="view">
<g clip-path="url(#clip0_812_1018)">
<path d="M27.6011 11.6548C21.1746 5.22834 10.7189 5.22834 4.29243 11.6548L0 15.9467L4.39892 20.3456C7.61189 23.5586 11.8324 25.1656 16.0535 25.1656C20.2746 25.1656 24.4946 23.5591 27.7081 20.3456L32.0005 16.0532L27.6011 11.6548ZM26.9432 19.5813C20.9384 25.5856 11.1681 25.5856 5.16324 19.5813L1.52865 15.9467L5.05676 12.4186C11.0616 6.41429 20.8319 6.41429 26.8368 12.4186L30.4714 16.0532L26.9432 19.5813Z" fill="black"/>
<path d="M15.4444 11.6597C13.3579 11.6597 11.6606 13.357 11.6606 15.4435C11.6606 15.7418 11.9028 15.984 12.2012 15.984C12.4996 15.984 12.7417 15.7418 12.7417 15.4435C12.7417 13.9532 13.9542 12.7407 15.4444 12.7407C15.7428 12.7407 15.985 12.4986 15.985 12.2002C15.985 11.9018 15.7433 11.6597 15.4444 11.6597Z" fill="black"/>
<path d="M15.985 8.95703C12.1104 8.95703 8.95801 12.1095 8.95801 15.9841C8.95801 19.8587 12.1104 23.0111 15.985 23.0111C19.8596 23.0111 23.0121 19.8587 23.0121 15.9841C23.0121 12.1095 19.8602 8.95703 15.985 8.95703ZM15.985 21.93C12.7067 21.93 10.0391 19.2624 10.0391 15.9841C10.0391 12.7057 12.7067 10.0381 15.985 10.0381C19.2634 10.0381 21.931 12.7057 21.931 15.9841C21.931 19.2624 19.264 21.93 15.985 21.93Z" fill="black"/>
</g>
<defs>
<clipPath id="clip0_812_1018">
<rect width="32" height="32" fill="white"/>
</clipPath>
</defs>
</symbol>

<symbol viewBox="0 0 40 40" fill="none" xmlns="http://www.w3.org/2000/svg" id="mail">
<circle cx="20" cy="20" r="19.5" stroke="#8EE901"/>
<g clip-path="url(#clip0_812_963)">
<path d="M27.5585 12.3896H12.4457C11.0966 12.3896 10 13.4863 10 14.8353V25.1643C10 26.5134 11.0966 27.61 12.4457 27.61H27.5543C28.9034 27.61 30 26.5134 30 25.1643V14.8395C30.0041 13.4904 28.9075 12.3896 27.5585 12.3896ZM28.8868 25.1643C28.8868 25.8968 28.2909 26.4927 27.5585 26.4927H12.4457C11.7132 26.4927 11.1173 25.8968 11.1173 25.1643V14.8395C11.1173 14.107 11.7132 13.5111 12.4457 13.5111H27.5543C28.2868 13.5111 28.8827 14.107 28.8827 14.8395V25.1643H28.8868Z" fill="#8EE901"/>
<path d="M22.6115 19.8714L27.5029 15.4849C27.7305 15.278 27.7512 14.9263 27.5443 14.6945C27.3374 14.4669 26.9856 14.4462 26.7539 14.6532L20.0086 20.7074L18.6927 19.5321C18.6885 19.528 18.6844 19.5238 18.6844 19.5197C18.6554 19.4907 18.6264 19.4659 18.5933 19.4411L13.2385 14.649C13.0067 14.4421 12.655 14.4628 12.4481 14.6945C12.2412 14.9263 12.2619 15.278 12.4936 15.4849L17.4429 19.9087L12.5143 24.5228C12.2908 24.7339 12.2784 25.0856 12.4895 25.3132C12.6012 25.4291 12.7502 25.4911 12.8992 25.4911C13.0357 25.4911 13.1723 25.4415 13.2799 25.3422L18.283 20.6618L19.6403 21.8743C19.7479 21.9695 19.8803 22.015 20.0127 22.015C20.1452 22.015 20.2817 21.9654 20.3852 21.8702L21.7798 20.6205L26.7539 25.3463C26.8615 25.4498 27.0022 25.4994 27.1388 25.4994C27.2877 25.4994 27.4326 25.4415 27.5443 25.3256C27.7554 25.1022 27.7471 24.7463 27.5236 24.5352L22.6115 19.8714Z" fill="#8EE901"/>
</g>
<defs>
<clipPath id="clip0_812_963">
<rect width="20" height="20" fill="white" transform="translate(10 10)"/>
</clipPath>
</defs>
</symbol>

<symbol viewBox="0 0 20 20" fill="none" xmlns="http://www.w3.org/2000/svg" id="call">
<g clip-path="url(#clip0_812_950)">
<path d="M15.8067 12.3892C15.3972 11.9628 14.9033 11.7349 14.3799 11.7349C13.8607 11.7349 13.3626 11.9586 12.9363 12.385L11.6024 13.7146C11.4927 13.6555 11.3829 13.6006 11.2774 13.5458C11.1254 13.4698 10.9819 13.398 10.8595 13.3221C9.61002 12.5285 8.47454 11.4943 7.38548 10.1562C6.85784 9.48926 6.50327 8.92785 6.24578 8.358C6.59191 8.04141 6.91272 7.71216 7.22508 7.39558C7.34327 7.27739 7.46146 7.15497 7.57966 7.03678C8.46609 6.15034 8.46609 5.00219 7.57966 4.11576L6.42729 2.96338C6.29643 2.83253 6.16135 2.69745 6.03472 2.56238C5.78145 2.30067 5.51552 2.03051 5.24115 1.77725C4.8317 1.37202 4.34204 1.15674 3.82706 1.15674C3.31209 1.15674 2.81399 1.37202 2.39188 1.77725C2.38766 1.78147 2.38766 1.78147 2.38344 1.78569L0.948249 3.23354C0.407943 3.77384 0.0998001 4.43234 0.0322619 5.19637C-0.0690454 6.42894 0.293972 7.57709 0.572568 8.32845C1.25639 10.1731 2.27791 11.8826 3.80174 13.7146C5.6506 15.9223 7.87514 17.6656 10.4163 18.894C11.3871 19.3541 12.683 19.8986 14.1309 19.9914C14.2195 19.9957 14.3124 19.9999 14.3968 19.9999C15.3719 19.9999 16.1908 19.6495 16.8324 18.9531C16.8366 18.9446 16.8451 18.9404 16.8493 18.9319C17.0688 18.666 17.322 18.4254 17.588 18.1679C17.7695 17.9949 17.9552 17.8133 18.1367 17.6234C18.5546 17.1886 18.7741 16.6821 18.7741 16.1629C18.7741 15.6395 18.5504 15.1371 18.1241 14.715L15.8067 12.3892ZM17.3178 16.834C17.3136 16.834 17.3136 16.8383 17.3178 16.834C17.1532 17.0113 16.9844 17.1717 16.8028 17.349C16.5285 17.6107 16.2499 17.8851 15.9882 18.1932C15.5618 18.6491 15.0595 18.8644 14.401 18.8644C14.3377 18.8644 14.2702 18.8644 14.2068 18.8602C12.9532 18.78 11.7881 18.2903 10.9144 17.8724C8.52519 16.7158 6.42729 15.0738 4.68396 12.9928C3.24455 11.2579 2.28213 9.65389 1.64474 7.93166C1.25217 6.8806 1.10865 6.0617 1.17197 5.28923C1.21418 4.79536 1.40413 4.38591 1.75449 4.03555L3.19389 2.59615C3.40073 2.40197 3.62023 2.29645 3.83551 2.29645C4.10144 2.29645 4.31672 2.45685 4.45179 2.59192C4.45601 2.59615 4.46024 2.60037 4.46446 2.60459C4.72195 2.84519 4.96677 3.09424 5.22426 3.36017C5.35512 3.49525 5.49019 3.63032 5.62527 3.76962L6.77764 4.92199C7.22508 5.36943 7.22508 5.7831 6.77764 6.23055C6.65523 6.35296 6.53703 6.47537 6.41462 6.59356C6.06005 6.95658 5.72236 7.29427 5.35512 7.62352C5.34667 7.63196 5.33823 7.63618 5.33401 7.64463C4.97099 8.00764 5.03853 8.36222 5.11451 8.60282C5.11873 8.61549 5.12295 8.62815 5.12718 8.64081C5.42688 9.36685 5.84899 10.0507 6.4906 10.8654L6.49482 10.8696C7.65986 12.3048 8.88821 13.4234 10.2432 14.2803C10.4163 14.39 10.5935 14.4786 10.7624 14.5631C10.9144 14.639 11.0579 14.7108 11.1803 14.7868C11.1972 14.7952 11.2141 14.8079 11.2309 14.8163C11.3745 14.8881 11.5095 14.9219 11.6488 14.9219C11.9992 14.9219 12.2187 14.7024 12.2904 14.6306L13.7341 13.187C13.8776 13.0435 14.1055 12.8704 14.3715 12.8704C14.6332 12.8704 14.8485 13.035 14.9793 13.1785C14.9835 13.1828 14.9835 13.1828 14.9878 13.187L17.3136 15.5128C17.7484 15.9434 17.7484 16.3866 17.3178 16.834Z" fill="#8EE901"/>
<path d="M10.8101 4.7574C11.9161 4.94313 12.9207 5.46656 13.7227 6.26857C14.5247 7.07059 15.0439 8.07522 15.2339 9.18116C15.2803 9.45975 15.5209 9.65392 15.7953 9.65392C15.8291 9.65392 15.8586 9.6497 15.8924 9.64548C16.2048 9.59483 16.4116 9.29935 16.3609 8.98698C16.133 7.64888 15.4998 6.42897 14.5332 5.46233C13.5665 4.49569 12.3466 3.86252 11.0085 3.63458C10.6962 3.58393 10.4049 3.79076 10.35 4.09891C10.2951 4.40705 10.4978 4.70675 10.8101 4.7574Z" fill="#8EE901"/>
<path d="M19.9771 8.82242C19.6014 6.61899 18.563 4.61395 16.9674 3.01836C15.3718 1.42277 13.3668 0.384369 11.1634 0.00868772C10.8552 -0.0461871 10.564 0.16487 10.5091 0.473013C10.4584 0.785377 10.6653 1.07664 10.9776 1.13151C12.9447 1.46498 14.7387 2.39785 16.1654 3.82037C17.5922 5.24712 18.5208 7.0411 18.8543 9.00815C18.9007 9.28675 19.1413 9.48092 19.4157 9.48092C19.4495 9.48092 19.479 9.4767 19.5128 9.47248C19.8209 9.42604 20.032 9.13056 19.9771 8.82242Z" fill="#8EE901"/>
</g>
<defs>
<clipPath id="clip0_812_950">
<rect width="20" height="20" fill="white"/>
</clipPath>
</defs>
</symbol>

<symbol  viewBox="0 0 32 32" fill="none" xmlns="http://www.w3.org/2000/svg" xmlns:xlink="http://www.w3.org/1999/xlink" id="facebook">
	<desc>
			Created with Pixso.
	</desc>
	<defs>
		<clipPath id="clip944_1254">
			<rect id="001-facebook" rx="0.000000" width="31.000000" height="31.000000" transform="translate(0.500000 0.500000)" fill="white" fill-opacity="0"/>
		</clipPath>
	</defs>
	<rect id="001-facebook" rx="0.000000" width="31.000000" height="31.000000" transform="translate(0.500000 0.500000)" fill="#FFFFFF" fill-opacity="0"/>
	<g clip-path="url(#clip944_1254)">
		<path id="Vector" d="M32 16C32 24.83 24.83 32 16 32C7.16 32 0 24.83 0 16C0 7.16 7.16 0 16 0C24.83 0 32 7.16 32 16Z" fill="#3B5998" fill-opacity="1.000000" fill-rule="evenodd"/>
		<path id="Vector" d="M20.02 16.62L17.16 16.62L17.16 27.08L12.84 27.08L12.84 16.62L10.78 16.62L10.78 12.95L12.84 12.95L12.84 10.57C12.84 8.87 13.65 6.2 17.2 6.2L20.41 6.22L20.41 9.78L18.08 9.78C17.7 9.78 17.16 9.97 17.16 10.79L17.16 12.95L20.4 12.95L20.02 16.62Z" fill="#FFFFFF" fill-opacity="1.000000" fill-rule="nonzero"/>
	</g>
</symbol>

<symbol viewBox="0 0 32 32" fill="none" xmlns="http://www.w3.org/2000/svg" xmlns:xlink="http://www.w3.org/1999/xlink" id="twitter">
	<desc>
			Created with Pixso.
	</desc>
	<defs>
		<clipPath id="clip944_1249">
			<rect id="002-twitter" rx="0.000000" width="31.000000" height="31.000000" transform="translate(0.500000 0.500000)" fill="white" fill-opacity="0"/>
		</clipPath>
	</defs>
	<rect id="002-twitter" rx="0.000000" width="31.000000" height="31.000000" transform="translate(0.500000 0.500000)" fill="#FFFFFF" fill-opacity="0"/>
	<g clip-path="url(#clip944_1249)">
		<path id="Vector" d="M32 16C32 24.83 24.83 31.99 16 31.99C7.16 31.99 0 24.83 0 16C0 7.16 7.16 0 16 0C24.83 0 32 7.16 32 16Z" fill="#55ACEE" fill-opacity="1.000000" fill-rule="evenodd"/>
		<path id="Vector" d="M25.79 11.49C25.11 11.8 24.37 12 23.6 12.1C24.39 11.62 24.99 10.87 25.28 9.98C24.54 10.42 23.72 10.74 22.85 10.91C22.15 10.16 21.16 9.7 20.06 9.7C17.95 9.7 16.23 11.41 16.23 13.52C16.23 13.82 16.27 14.12 16.33 14.4C13.16 14.24 10.34 12.71 8.45 10.4C8.12 10.96 7.93 11.62 7.93 12.32C7.93 13.65 8.61 14.82 9.63 15.51C9.01 15.49 8.42 15.31 7.9 15.03C7.9 15.04 7.9 15.06 7.9 15.08C7.9 16.93 9.22 18.47 10.97 18.83C10.65 18.91 10.31 18.96 9.96 18.96C9.72 18.96 9.48 18.94 9.24 18.89C9.73 20.41 11.14 21.52 12.82 21.55C11.51 22.57 9.86 23.18 8.07 23.18C7.76 23.18 7.45 23.17 7.15 23.13C8.84 24.22 10.86 24.85 13.01 24.85C20.05 24.85 23.9 19.02 23.9 13.97C23.9 13.8 23.89 13.64 23.89 13.47C24.63 12.93 25.28 12.26 25.79 11.49Z" fill="#F1F2F2" fill-opacity="1.000000" fill-rule="nonzero"/>
	</g>
</symbol>

<symbol  viewBox="0 0 32 32" fill="none" xmlns="http://www.w3.org/2000/svg" xmlns:xlink="http://www.w3.org/1999/xlink" id="vk">
	<desc>
			Created with Pixso.
	</desc>
	<defs>
		<clipPath id="clip944_1244">
			<rect id="003-vk" rx="0.000000" width="31.000000" height="31.000000" transform="translate(0.500000 0.500000)" fill="white" fill-opacity="0"/>
		</clipPath>
	</defs>
	<rect id="003-vk" rx="0.000000" width="31.000000" height="31.000000" transform="translate(0.500000 0.500000)" fill="#FFFFFF" fill-opacity="0"/>
	<g clip-path="url(#clip944_1244)">
		<path id="XMLID 11" d="M32 16C32 24.83 24.83 32 16 32C7.16 32 0 24.83 0 16C0 7.16 7.16 0 16 0C24.83 0 32 7.16 32 16Z" fill="#4D76A1" fill-opacity="1.000000" fill-rule="evenodd"/>
		<path id="Vector" d="M15.39 23.01L16.65 23.01C16.65 23.01 17.03 22.97 17.22 22.76C17.4 22.57 17.39 22.21 17.39 22.21C17.39 22.21 17.37 20.53 18.15 20.28C18.92 20.03 19.91 21.91 20.96 22.63C21.75 23.17 22.36 23.05 22.36 23.05L25.16 23.01C25.16 23.01 26.63 22.92 25.93 21.77C25.88 21.67 25.53 20.91 23.85 19.35C22.09 17.72 22.33 17.99 24.44 15.16C25.73 13.44 26.25 12.39 26.09 11.94C25.93 11.51 24.99 11.63 24.99 11.63L21.83 11.65C21.83 11.65 21.59 11.61 21.42 11.72C21.25 11.82 21.14 12.06 21.14 12.06C21.14 12.06 20.64 13.39 19.97 14.52C18.57 16.91 18 17.03 17.77 16.89C17.24 16.54 17.37 15.5 17.37 14.76C17.37 12.44 17.72 11.48 16.69 11.23C16.35 11.14 16.09 11.09 15.22 11.08C14.09 11.07 13.13 11.08 12.59 11.35C12.24 11.52 11.96 11.92 12.13 11.94C12.33 11.97 12.81 12.07 13.06 12.41C13.38 12.85 13.37 13.84 13.37 13.84C13.37 13.84 13.56 16.56 12.94 16.9C12.51 17.13 11.93 16.66 10.67 14.49C10.03 13.38 9.54 12.15 9.54 12.15C9.54 12.15 9.45 11.93 9.28 11.8C9.08 11.65 8.8 11.61 8.8 11.61L5.8 11.63C5.8 11.63 5.35 11.64 5.18 11.83C5.03 12.01 5.17 12.37 5.17 12.37C5.17 12.37 7.52 17.87 10.18 20.64C12.62 23.18 15.39 23.01 15.39 23.01Z" fill="#FFFFFF" fill-opacity="1.000000" fill-rule="evenodd"/>
	</g>
</symbol>

<symbol  viewBox="0 0 32 32" fill="none" xmlns="http://www.w3.org/2000/svg" xmlns:xlink="http://www.w3.org/1999/xlink" id="youtube">
	<desc>
			Created with Pixso.
	</desc>
	<defs>
		<clipPath id="clip944_1239">
			<rect id="004-youtube" rx="0.000000" width="31.000000" height="31.000000" transform="translate(0.500000 0.500000)" fill="white" fill-opacity="0"/>
		</clipPath>
	</defs>
	<rect id="004-youtube" rx="0.000000" width="31.000000" height="31.000000" transform="translate(0.500000 0.500000)" fill="#FFFFFF" fill-opacity="0"/>
	<g clip-path="url(#clip944_1239)">
		<path id="Vector" d="M16 0C24.83 0 32 7.16 32 16C32 24.83 24.83 32 16 32C7.16 32 0 24.83 0 16C0 7.16 7.16 0 16 0Z" fill="#C4302B" fill-opacity="1.000000" fill-rule="nonzero"/>
		<path id="Vector" d="M15.61 13C16.11 13 16.51 12.83 16.8 12.61C17.09 12.38 17.23 12.06 17.23 11.66L17.23 9.23C17.23 8.88 17.08 8.58 16.79 8.36C16.5 8.13 16.12 8.02 15.66 8.02C15.15 8.02 14.75 8.12 14.45 8.34C14.15 8.55 14 8.84 14 9.21L14 11.64C14 12.04 14.15 12.36 14.44 12.59C14.73 12.83 15.12 13 15.61 13ZM15.08 9.33C15.08 9.23 15.13 9.16 15.22 9.1C15.32 9.04 15.44 9.02 15.59 9.02C15.76 9.02 15.89 9.04 16 9.1C16.1 9.16 16.15 9.23 16.15 9.33L16.15 11.63C16.15 11.75 16.1 11.83 16 11.9C15.9 11.96 15.76 12 15.59 12C15.43 12 15.3 11.97 15.21 11.9C15.12 11.84 15.08 11.75 15.08 11.63L15.08 9.33ZM18.96 12.99C19.13 12.99 19.32 12.89 19.5 12.79C19.69 12.68 19.87 12.53 20.05 12.33L20.05 12.87L20.99 12.87L20.99 8.01L20.05 8.01L20.05 11.7C19.96 11.81 19.86 11.89 19.76 11.96C19.65 12.03 19.56 12.07 19.49 12.07C19.41 12.07 19.34 12.04 19.3 11.99C19.26 11.94 19.24 11.85 19.24 11.74L19.24 8.01L18.3 8.01L18.3 12.08C18.3 12.36 18.35 12.58 18.46 12.73C18.57 12.87 18.74 12.99 18.96 12.99ZM21.7 15L10.28 15C8.47 15 7 16.42 7 18.16L7 20.83C7 22.58 8.47 23.99 10.28 23.99L21.7 23.99C23.52 23.99 24.99 22.58 24.99 20.83L24.99 18.16C24.99 16.42 23.52 15 21.7 15ZM11.98 17.71L10.97 17.71L10.97 21.9L10 21.9L10 17.71L8.99 17.71L8.99 17L11.98 17C11.98 17 11.98 17.71 11.98 17.71ZM15 21.95L13.94 21.95L13.94 21.52C13.75 21.68 13.55 21.8 13.33 21.89C13.13 21.97 12.92 22.01 12.72 22.01C12.48 22.01 12.3 21.95 12.17 21.83C12.05 21.72 11.99 21.54 11.99 21.31L11.99 18L13.04 18L13.04 21.03C13.04 21.13 13.06 21.19 13.11 21.23C13.15 21.28 13.23 21.3 13.32 21.3C13.4 21.3 13.5 21.27 13.62 21.21C13.74 21.16 13.84 21.09 13.94 21L13.94 18L15 18C15 18 15 21.95 15 21.95ZM18.98 21.2C18.98 21.46 18.9 21.66 18.74 21.8C18.58 21.94 18.34 22 18.03 22C17.83 22 17.65 21.98 17.49 21.92C17.33 21.87 17.18 21.79 17.04 21.68L17.04 21.96L15.99 21.96L15.99 17L17.04 17L17.04 18.6C17.18 18.49 17.33 18.4 17.49 18.34C17.65 18.29 17.81 18.26 17.97 18.26C18.3 18.26 18.55 18.33 18.72 18.49C18.9 18.64 18.98 18.87 18.98 19.17C18.98 19.17 18.98 21.2 18.98 21.2ZM22.99 20.09L21.05 20.09L21.05 20.8C21.05 21 21.08 21.14 21.15 21.22C21.22 21.29 21.33 21.33 21.49 21.33C21.66 21.33 21.78 21.3 21.85 21.23C21.91 21.17 21.95 21.02 21.95 20.8L21.95 20.63L22.99 20.63L22.99 20.82C22.99 21.21 22.87 21.5 22.61 21.7C22.35 21.89 21.97 21.99 21.47 21.99C21.01 21.99 20.66 21.89 20.4 21.68C20.14 21.48 20 21.19 20 20.82L20 19.12C20 18.79 20.15 18.52 20.43 18.32C20.72 18.11 21.09 18.01 21.55 18.01C22.01 18.01 22.37 18.1 22.62 18.29C22.86 18.49 22.99 18.76 22.99 19.12C22.99 19.12 22.99 20.09 22.99 20.09ZM11.42 13.01L12.61 13.01L12.61 10.1L14 6L12.79 6L12.05 8.8L11.97 8.8L11.2 6L10 6L11.42 10.23C11.42 10.23 11.42 13.01 11.42 13.01ZM17.48 18.84L17.26 18.87L17.04 18.98L17.04 21.26C17.13 21.32 17.21 21.37 17.29 21.39L17.54 21.43C17.67 21.43 17.76 21.4 17.82 21.35C17.88 21.3 17.91 21.22 17.91 21.1L17.91 19.21C17.91 19.09 17.88 19 17.8 18.93C17.73 18.87 17.62 18.84 17.48 18.84Z" fill="#FFFFFF" fill-opacity="1.000000" fill-rule="nonzero"/>
		<path id="Vector" d="M21.55 18.67C21.39 18.67 21.27 18.7 21.2 18.77C21.13 18.84 21.1 18.96 21.1 19.11L21.1 19.5L21.99 19.5L21.99 19.11C21.99 18.96 21.96 18.84 21.89 18.77C21.82 18.7 21.7 18.67 21.55 18.67Z" fill="#FFFFFF" fill-opacity="1.000000" fill-rule="nonzero"/>
	</g>
</symbol>

<symbol viewBox="0 0 32 32" fill="none" xmlns="http://www.w3.org/2000/svg" xmlns:xlink="http://www.w3.org/1999/xlink" id="instagram">
	<desc>
			Created with Pixso.
	</desc>
	<defs>
		<clipPath id="clip944_1234">
			<rect id="005-instagram" rx="0.000000" width="31.000000" height="31.000000" transform="translate(0.500000 0.500000)" fill="white" fill-opacity="0"/>
		</clipPath>
	</defs>
	<rect id="005-instagram" rx="0.000000" width="31.000000" height="31.000000" transform="translate(0.500000 0.500000)" fill="#FFFFFF" fill-opacity="0"/>
	<g clip-path="url(#clip944_1234)">
		<path id="Vector" d="M20.76 8.51L11.23 8.51C9.7 8.51 8.46 9.75 8.46 11.27L8.46 20.81C8.46 22.33 9.7 23.57 11.23 23.57L20.76 23.57C22.28 23.57 23.52 22.33 23.52 20.81L23.52 11.27C23.52 9.75 22.28 8.51 20.76 8.51ZM15.99 21C13.26 21 11.04 18.77 11.04 16.04C11.04 13.31 13.26 11.08 15.99 11.08C18.73 11.08 20.95 13.31 20.95 16.04C20.95 18.77 18.73 21 15.99 21ZM21.11 12.11C20.46 12.11 19.94 11.58 19.94 10.93C19.94 10.29 20.46 9.76 21.11 9.76C21.76 9.76 22.28 10.29 22.28 10.93C22.28 11.58 21.76 12.11 21.11 12.11Z" fill="#6A453B" fill-opacity="1.000000" fill-rule="nonzero"/>
		<path id="Vector" d="M16 13.18C14.42 13.18 13.13 14.46 13.13 16.04C13.13 17.62 14.42 18.9 16 18.9C17.57 18.9 18.86 17.62 18.86 16.04C18.86 14.46 17.57 13.18 16 13.18Z" fill="#6A453B" fill-opacity="1.000000" fill-rule="nonzero"/>
		<path id="Vector" d="M16 0C7.16 0 0 7.16 0 16C0 24.83 7.16 32 16 32C24.83 32 32 24.83 32 16C32 7.16 24.83 0 16 0ZM25.62 20.81C25.62 23.48 23.44 25.66 20.76 25.66L11.23 25.66C8.55 25.66 6.37 23.48 6.37 20.81L6.37 11.27C6.37 8.59 8.55 6.41 11.23 6.41L20.76 6.41C23.44 6.41 25.62 8.59 25.62 11.27L25.62 20.81Z" fill="#6A453B" fill-opacity="1.000000" fill-rule="nonzero"/>
	</g>
</symbol>

<symbol viewBox="0 0 48 48" fill="none" xmlns="http://www.w3.org/2000/svg" id="visa">
<g clip-path="url(#clip0_812_929)">
<path d="M17.6001 30.8954L20.0382 17.1812H23.8477L21.4858 30.8954H17.6001Z" fill="#3C58BF"/>
<path d="M17.6001 30.8954L20.7239 17.1812H23.8477L21.4858 30.8954H17.6001Z" fill="#293688"/>
<path d="M35.276 17.3332C34.5141 17.0284 33.2951 16.7236 31.7713 16.7236C27.9618 16.7236 25.2189 18.6284 25.2189 21.3713C25.2189 23.4284 27.1237 24.4951 28.6475 25.1808C30.1713 25.8665 30.6284 26.3236 30.6284 26.9332C30.6284 27.8474 29.4094 28.3046 28.3427 28.3046C26.8189 28.3046 25.9808 28.076 24.6856 27.5427L24.1522 27.3141L23.6189 30.4379C24.5332 30.8189 26.2094 31.1998 27.9618 31.1998C31.9999 31.1998 34.6665 29.2951 34.6665 26.3998C34.6665 24.7998 33.676 23.5808 31.3903 22.5903C30.0189 21.9046 29.1808 21.5236 29.1808 20.8379C29.1808 20.2284 29.8665 19.6189 31.3903 19.6189C32.6856 19.6189 33.5999 19.8474 34.2856 20.1522L34.6665 20.3046L35.276 17.3332Z" fill="#3C58BF"/>
<path d="M35.276 17.3332C34.5141 17.0284 33.2951 16.7236 31.7713 16.7236C27.9618 16.7236 25.9046 18.6284 25.9046 21.3713C25.9046 23.4284 27.1237 24.4951 28.6475 25.1808C30.1713 25.8665 30.6284 26.3236 30.6284 26.9332C30.6284 27.8474 29.4094 28.3046 28.3427 28.3046C26.8189 28.3046 25.9808 28.076 24.6856 27.5427L24.1522 27.3141L23.6189 30.4379C24.5332 30.8189 26.2094 31.1998 27.9618 31.1998C31.9999 31.1998 34.6665 29.2951 34.6665 26.3998C34.6665 24.7998 33.676 23.5808 31.3903 22.5903C30.0189 21.9046 29.1808 21.5236 29.1808 20.8379C29.1808 20.2284 29.8665 19.6189 31.3903 19.6189C32.6856 19.6189 33.5999 19.8474 34.2856 20.1522L34.6665 20.3046L35.276 17.3332Z" fill="#293688"/>
<path d="M41.8295 17.1812C40.9152 17.1812 40.2295 17.2573 39.8486 18.1716L34.1343 30.8954H38.2486L39.0105 28.6097H43.8867L44.3438 30.8954H48.0009L44.8009 17.1812H41.8295ZM40.0771 26.324C40.3057 25.6383 41.6009 22.2859 41.6009 22.2859C41.6009 22.2859 41.9057 21.4478 42.1343 20.9145L42.3628 22.2097C42.3628 22.2097 43.1248 25.6383 43.2771 26.4002H40.0771V26.324Z" fill="#3C58BF"/>
<path d="M42.7438 17.1812C41.8295 17.1812 41.1438 17.2573 40.7628 18.1716L34.1343 30.8954H38.2486L39.0105 28.6097H43.8867L44.3438 30.8954H48.0009L44.8009 17.1812H42.7438ZM40.0771 26.324C40.3819 25.5621 41.6009 22.2859 41.6009 22.2859C41.6009 22.2859 41.9057 21.4478 42.1343 20.9145L42.3628 22.2097C42.3628 22.2097 43.1248 25.6383 43.2771 26.4002H40.0771V26.324Z" fill="#293688"/>
<path d="M10.5908 26.7811L10.2098 24.8002C9.52408 22.5145 7.31456 20.0002 4.87646 18.7811L8.30504 30.9716H12.4193L18.5908 17.2573H14.4765L10.5908 26.7811Z" fill="#3C58BF"/>
<path d="M10.5908 26.7811L10.2098 24.8002C9.52408 22.5145 7.31456 20.0002 4.87646 18.7811L8.30504 30.9716H12.4193L18.5908 17.2573H15.2384L10.5908 26.7811Z" fill="#293688"/>
<path d="M0 17.1812L0.685714 17.3335C5.5619 18.4764 8.91428 21.3716 10.2095 24.8002L8.83809 18.324C8.60952 17.4097 7.92381 17.1812 7.08571 17.1812H0Z" fill="#FFBC00"/>
<path d="M0 17.1812C4.87619 18.324 8.91428 21.2954 10.2095 24.724L8.91428 19.3145C8.68571 18.4002 7.92381 17.8669 7.08571 17.8669L0 17.1812Z" fill="#F7981D"/>
<path d="M0 17.1812C4.87619 18.324 8.91428 21.2954 10.2095 24.724L9.29524 21.7526C9.06667 20.8383 8.7619 19.924 7.69524 19.5431L0 17.1812Z" fill="#ED7C00"/>
<path d="M14.3998 26.3236L11.8093 23.7332L10.5902 26.6284L10.2855 24.7236C9.59977 22.4379 7.39024 19.9236 4.95215 18.7046L8.38072 30.8951H12.495L14.3998 26.3236Z" fill="#051244"/>
<path d="M21.4858 30.8949L18.2096 27.5425L17.6001 30.8949H21.4858Z" fill="#051244"/>
<path d="M30.2475 26.1714C30.5522 26.4761 30.7046 26.7047 30.6284 27.0095C30.6284 27.9238 29.4094 28.3809 28.3427 28.3809C26.8189 28.3809 25.9808 28.1523 24.6856 27.619L24.1522 27.3904L23.6189 30.5142C24.5332 30.8952 26.2094 31.2761 27.9618 31.2761C30.3998 31.2761 32.3808 30.5904 33.5237 29.3714L30.2475 26.1714Z" fill="#051244"/>
<path d="M34.6665 30.895H38.2475L39.0094 28.6093H43.8856L44.3427 30.895H47.9998L46.7046 25.3331L42.1332 20.9141L42.3617 22.1331C42.3617 22.1331 43.1236 25.5617 43.276 26.3236H40.076C40.3808 25.5617 41.5998 22.2855 41.5998 22.2855C41.5998 22.2855 41.9046 21.4474 42.1332 20.9141" fill="#051244"/>
</g>
<defs>
<clipPath id="clip0_812_929">
<rect width="48" height="48" fill="white"/>
</clipPath>
</defs>
</symbol>

<symbol viewBox="0 0 48 48" fill="none" xmlns="http://www.w3.org/2000/svg" id="mastercard">
<g clip-path="url(#clip0_812_900)">
<path d="M48.0002 24.0001C48.0002 31.9239 41.6002 38.4001 33.6002 38.4001C25.6764 38.4001 19.2002 31.9239 19.2002 24.0001C19.2002 16.0763 25.6002 9.6001 33.524 9.6001C41.6002 9.6001 48.0002 16.0763 48.0002 24.0001Z" fill="#FFB600"/>
<path d="M33.6002 9.6001C41.524 9.6001 48.0002 16.0763 48.0002 24.0001C48.0002 31.9239 41.6002 38.4001 33.6002 38.4001C25.6764 38.4001 19.2002 31.9239 19.2002 24.0001" fill="#F7981D"/>
<path d="M33.6001 9.6001C41.5239 9.6001 48.0001 16.0763 48.0001 24.0001C48.0001 31.9239 41.6001 38.4001 33.6001 38.4001" fill="#FF8500"/>
<path d="M14.2476 9.6001C6.4 9.67629 0 16.0763 0 24.0001C0 31.9239 6.4 38.4001 14.4 38.4001C18.1333 38.4001 21.4857 36.9525 24.0762 34.6668C24.6095 34.2096 25.0667 33.6763 25.5238 33.143H22.5524C22.1714 32.6858 21.7905 32.1525 21.4857 31.6953H26.5905C26.8952 31.2382 27.2 30.7049 27.4286 30.1715H20.6476C20.419 29.7144 20.1905 29.181 20.0381 28.6477H27.9619C28.419 27.2001 28.7238 25.6763 28.7238 24.0763C28.7238 23.0096 28.5714 22.0191 28.419 21.0287H19.581C19.6571 20.4953 19.8095 20.0382 19.9619 19.5049H27.8857C27.7333 18.9715 27.5048 18.4382 27.2762 17.981H20.5714C20.8 17.4477 21.1048 16.9906 21.4095 16.4572H26.5143C26.2095 15.9239 25.8286 15.3906 25.3714 14.9334H22.5524C23.0095 14.4001 23.4667 13.943 24 13.4858C21.4857 11.1239 18.0571 9.75248 14.3238 9.75248C14.3238 9.6001 14.3238 9.6001 14.2476 9.6001Z" fill="#FF5050"/>
<path d="M0 24.0001C0 31.9239 6.4 38.4001 14.4 38.4001C18.1333 38.4001 21.4857 36.9524 24.0762 34.6667C24.6095 34.2096 25.0667 33.6762 25.5238 33.1429H22.5524C22.1714 32.6858 21.7905 32.1524 21.4857 31.6953H26.5905C26.8952 31.2381 27.2 30.7048 27.4286 30.1715H20.6476C20.419 29.7143 20.1905 29.181 20.0381 28.6477H27.9619C28.419 27.2001 28.7238 25.6762 28.7238 24.0762C28.7238 23.0096 28.5714 22.0191 28.419 21.0286H19.581C19.6571 20.4953 19.8095 20.0382 19.9619 19.5048H27.8857C27.7333 18.9715 27.5048 18.4382 27.2762 17.981H20.5714C20.8 17.4477 21.1048 16.9905 21.4095 16.4572H26.5143C26.2095 15.9239 25.8286 15.3905 25.3714 14.9334H22.5524C23.0095 14.4001 23.4667 13.9429 24 13.4858C21.4857 11.1239 18.0571 9.75244 14.3238 9.75244H14.2476" fill="#E52836"/>
<path d="M14.399 38.4001C18.1323 38.4001 21.4847 36.9524 24.0752 34.6667C24.6085 34.2096 25.0656 33.6762 25.5228 33.1429H22.5513C22.1704 32.6858 21.7894 32.1524 21.4847 31.6953H26.5894C26.8942 31.2381 27.199 30.7048 27.4275 30.1715H20.6466C20.418 29.7143 20.1894 29.181 20.0371 28.6477H27.9609C28.418 27.2001 28.7228 25.6762 28.7228 24.0762C28.7228 23.0096 28.5704 22.0191 28.418 21.0286H19.5799C19.6561 20.4953 19.8085 20.0382 19.9609 19.5048H27.8847C27.7323 18.9715 27.5037 18.4382 27.2752 17.981H20.5704C20.799 17.4477 21.1037 16.9905 21.4085 16.4572H26.5132C26.2085 15.9239 25.8275 15.3905 25.3704 14.9334H22.5513C23.0085 14.4001 23.4656 13.9429 23.999 13.4858C21.4847 11.1239 18.0561 9.75244 14.3228 9.75244H14.2466" fill="#CB2026"/>
<path d="M19.5057 27.6569L19.7342 26.3617C19.658 26.3617 19.5057 26.4379 19.3533 26.4379C18.82 26.4379 18.7438 26.1331 18.82 25.9807L19.2771 23.3141H20.1152L20.3438 21.8664H19.5819L19.7342 20.9521H18.2104C18.2104 20.9521 17.2961 25.9807 17.2961 26.5902C17.2961 27.5045 17.8295 27.8855 18.5152 27.8855C18.9723 27.8855 19.3533 27.7331 19.5057 27.6569Z" fill="white"/>
<path d="M20.0391 25.219C20.0391 27.3523 21.4867 27.8856 22.7057 27.8856C23.8486 27.8856 24.3057 27.6571 24.3057 27.6571L24.6105 26.2094C24.6105 26.2094 23.7724 26.5904 23.0105 26.5904C21.3343 26.5904 21.6391 25.3714 21.6391 25.3714H24.7629C24.7629 25.3714 24.9914 24.3809 24.9914 23.9999C24.9914 23.0094 24.4581 21.7904 22.7819 21.7904C21.1819 21.638 20.0391 23.3142 20.0391 25.219ZM22.7057 23.0095C23.5438 23.0095 23.3914 23.9999 23.3914 24.0761H21.7153C21.7153 23.9999 21.8676 23.0095 22.7057 23.0095Z" fill="white"/>
<path d="M32.3812 27.6571L32.6859 25.9809C32.6859 25.9809 31.924 26.3618 31.3907 26.3618C30.324 26.3618 29.8669 25.5237 29.8669 24.6095C29.8669 22.7809 30.7811 21.7904 31.8478 21.7904C32.6097 21.7904 33.2192 22.2476 33.2192 22.2476L33.4478 20.6476C33.4478 20.6476 32.5335 20.2666 31.6954 20.2666C29.9431 20.2666 28.1907 21.7904 28.1907 24.6856C28.1907 26.5904 29.105 27.8856 30.9335 27.8856C31.5431 27.8856 32.3812 27.6571 32.3812 27.6571Z" fill="white"/>
<path d="M11.1247 21.6382C10.0581 21.6382 9.29616 21.9429 9.29616 21.9429L9.06759 23.2382C9.06759 23.2382 9.7533 22.9334 10.7438 22.9334C11.2771 22.9334 11.7343 23.0096 11.7343 23.4668C11.7343 23.7715 11.6581 23.8477 11.6581 23.8477C11.6581 23.8477 11.2009 23.8477 10.9723 23.8477C9.67711 23.8477 8.22949 24.381 8.22949 26.1334C8.22949 27.5049 9.14378 27.8096 9.67711 27.8096C10.7438 27.8096 11.2009 27.1239 11.2771 27.1239L11.2009 27.7334H12.5724L13.1819 23.5429C13.1819 21.7144 11.6581 21.6382 11.1247 21.6382ZM11.4295 25.0668C11.4295 25.2953 11.2771 26.5144 10.3628 26.5144C9.90568 26.5144 9.7533 26.1334 9.7533 25.9049C9.7533 25.5239 9.98187 24.9906 11.1247 24.9906C11.3533 25.0668 11.4295 25.0668 11.4295 25.0668Z" fill="white"/>
<path d="M14.6293 27.8096C15.0103 27.8096 16.915 27.8858 16.915 25.8287C16.915 23.9239 15.0865 24.3049 15.0865 23.543C15.0865 23.162 15.3912 23.0096 15.9246 23.0096C16.1531 23.0096 16.9912 23.0858 16.9912 23.0858L17.2198 21.7144C17.2198 21.7144 16.6865 21.562 15.7722 21.562C14.6293 21.562 13.4865 22.0192 13.4865 23.543C13.4865 25.2953 15.3912 25.143 15.3912 25.8287C15.3912 26.2858 14.8579 26.362 14.477 26.362C13.7912 26.362 13.1055 26.1334 13.1055 26.1334L12.877 27.5049C12.9531 27.6572 13.3341 27.8096 14.6293 27.8096Z" fill="white"/>
<path d="M45.0296 20.4189L44.7249 22.4761C44.7249 22.4761 44.1153 21.7142 43.2772 21.7142C41.9058 21.7142 40.6868 23.3904 40.6868 25.3713C40.6868 26.5904 41.2963 27.8856 42.5915 27.8856C43.5058 27.8856 44.0391 27.2761 44.0391 27.2761L43.963 27.8094H45.4868L46.6296 20.4951L45.0296 20.4189ZM44.3439 24.457C44.3439 25.2951 43.963 26.3618 43.1249 26.3618C42.5915 26.3618 42.2868 25.9047 42.2868 25.1428C42.2868 23.9237 42.8201 23.1618 43.5058 23.1618C44.0391 23.1618 44.3439 23.5428 44.3439 24.457Z" fill="white"/>
<path d="M2.81993 27.7332L3.73422 22.2475L3.8866 27.7332H4.95327L6.93422 22.2475L6.09612 27.7332H7.69612L8.91517 20.4189H6.40088L4.87708 24.9142L4.80089 20.4189H2.59136L1.37231 27.7332H2.81993Z" fill="white"/>
<path d="M26.4377 27.7334C26.8948 25.2191 26.971 23.162 28.0377 23.5429C28.19 22.5524 28.4186 22.1715 28.571 21.7905C28.571 21.7905 28.4948 21.7905 28.2662 21.7905C27.5805 21.7905 27.0472 22.7048 27.0472 22.7048L27.1996 21.8667H25.7519L24.7615 27.8096H26.4377V27.7334Z" fill="white"/>
<path d="M35.8864 21.6382C34.8198 21.6382 34.0579 21.9429 34.0579 21.9429L33.8293 23.2382C33.8293 23.2382 34.515 22.9334 35.5055 22.9334C36.0388 22.9334 36.496 23.0096 36.496 23.4668C36.496 23.7715 36.4198 23.8477 36.4198 23.8477C36.4198 23.8477 35.9626 23.8477 35.7341 23.8477C34.4388 23.8477 32.9912 24.381 32.9912 26.1334C32.9912 27.5049 33.9055 27.8096 34.4388 27.8096C35.5055 27.8096 35.9626 27.1239 36.0388 27.1239L35.9626 27.7334H37.3341L37.9436 23.5429C38.0198 21.7144 36.4198 21.6382 35.8864 21.6382ZM36.2674 25.0668C36.2674 25.2953 36.115 26.5144 35.2007 26.5144C34.7436 26.5144 34.5912 26.1334 34.5912 25.9049C34.5912 25.5239 34.8198 24.9906 35.9626 24.9906C36.1912 25.0668 36.1912 25.0668 36.2674 25.0668Z" fill="white"/>
<path d="M39.2377 27.7334C39.6949 25.2191 39.7711 23.162 40.8377 23.5429C40.9901 22.5524 41.2187 22.1715 41.3711 21.7905C41.3711 21.7905 41.2949 21.7905 41.0663 21.7905C40.3806 21.7905 39.8472 22.7048 39.8472 22.7048L39.9996 21.8667H38.552L37.5615 27.8096H39.2377V27.7334Z" fill="white"/>
<path d="M17.1443 26.5902C17.1443 27.5045 17.6776 27.8855 18.3633 27.8855C18.8967 27.8855 19.3538 27.7331 19.5062 27.6569L19.7348 26.3617C19.6586 26.3617 19.5062 26.4379 19.3538 26.4379C18.8205 26.4379 18.7443 26.1331 18.8205 25.9807L19.2776 23.3141H20.1157L20.3443 21.8664H19.5824L19.7348 20.9521" fill="#DCE5E5"/>
<path d="M20.8013 25.219C20.8013 27.3523 21.487 27.8856 22.706 27.8856C23.8489 27.8856 24.306 27.6571 24.306 27.6571L24.6108 26.2094C24.6108 26.2094 23.7727 26.5904 23.0108 26.5904C21.3346 26.5904 21.6394 25.3714 21.6394 25.3714H24.7632C24.7632 25.3714 24.9918 24.3809 24.9918 23.9999C24.9918 23.0094 24.4584 21.7904 22.7822 21.7904C21.1822 21.638 20.8013 23.3142 20.8013 25.219ZM22.706 23.0095C23.5441 23.0095 23.6965 23.9999 23.6965 24.0761H21.7156C21.7156 23.9999 21.8679 23.0095 22.706 23.0095Z" fill="#DCE5E5"/>
<path d="M32.3817 27.6571L32.6865 25.9809C32.6865 25.9809 31.9246 26.3618 31.3912 26.3618C30.3246 26.3618 29.8674 25.5237 29.8674 24.6095C29.8674 22.7809 30.7817 21.7904 31.8484 21.7904C32.6103 21.7904 33.2198 22.2476 33.2198 22.2476L33.4484 20.6476C33.4484 20.6476 32.5341 20.2666 31.696 20.2666C29.9436 20.2666 28.9531 21.7904 28.9531 24.6856C28.9531 26.5904 29.1055 27.8856 30.9341 27.8856C31.5436 27.8856 32.3817 27.6571 32.3817 27.6571Z" fill="#DCE5E5"/>
<path d="M9.06759 23.3143C9.06759 23.3143 9.7533 23.0096 10.7438 23.0096C11.2771 23.0096 11.7343 23.0858 11.7343 23.5429C11.7343 23.8477 11.6581 23.9239 11.6581 23.9239C11.6581 23.9239 11.2009 23.9239 10.9723 23.9239C9.67711 23.9239 8.22949 24.4572 8.22949 26.2096C8.22949 27.581 9.14378 27.8858 9.67711 27.8858C10.7438 27.8858 11.2009 27.2001 11.2771 27.2001L11.2009 27.8096H12.5724L13.1819 23.6191C13.1819 21.8667 11.6581 21.7905 11.0485 21.7905L9.06759 23.3143ZM12.1914 25.0667C12.1914 25.2953 11.2771 26.5143 10.3628 26.5143C9.90568 26.5143 9.7533 26.1334 9.7533 25.9048C9.7533 25.5239 9.98187 24.9905 11.1247 24.9905C11.3533 25.0667 12.1914 25.0667 12.1914 25.0667Z" fill="#DCE5E5"/>
<path d="M12.9519 27.6572C12.9519 27.6572 13.409 27.8096 14.7043 27.8096C15.0852 27.8096 16.99 27.8858 16.99 25.8287C16.99 23.9239 15.1614 24.3049 15.1614 23.543C15.1614 23.162 15.4662 23.0096 15.9995 23.0096C16.2281 23.0096 17.0662 23.0858 17.0662 23.0858L17.2948 21.7144C17.2948 21.7144 16.7614 21.562 15.8471 21.562C14.7043 21.562 14.3233 22.0192 14.3233 23.543C14.3233 25.2953 15.4662 25.143 15.4662 25.8287C15.4662 26.2858 14.9329 26.362 14.5519 26.362" fill="#DCE5E5"/>
<path d="M44.7246 22.4761C44.7246 22.4761 44.1151 21.7142 43.277 21.7142C41.9055 21.7142 41.4484 23.3904 41.4484 25.3713C41.4484 26.5903 41.296 27.8856 42.5913 27.8856C43.5055 27.8856 44.0389 27.2761 44.0389 27.2761L43.9627 27.8094H45.4865L46.6293 20.4951L44.7246 22.4761ZM44.6484 24.457C44.6484 25.2951 43.9627 26.3618 43.1246 26.3618C42.5913 26.3618 42.2865 25.9046 42.2865 25.1427C42.2865 23.9237 42.8198 23.1618 43.5055 23.1618C44.0389 23.1618 44.6484 23.5427 44.6484 24.457Z" fill="#DCE5E5"/>
<path d="M2.81993 27.7332L3.73422 22.2475L3.8866 27.7332H4.95327L6.93422 22.2475L6.09612 27.7332H7.69612L8.91517 20.4189H7.01041L4.87708 24.9142L4.80089 20.4189H3.96279L1.37231 27.7332H2.81993Z" fill="#DCE5E5"/>
<path d="M24.8394 27.7334H26.4394C26.8965 25.2191 26.9727 23.162 28.0394 23.5429C28.1917 22.5524 28.4203 22.1715 28.5727 21.7905C28.5727 21.7905 28.4965 21.7905 28.2679 21.7905C27.5822 21.7905 27.0489 22.7048 27.0489 22.7048L27.2013 21.8667" fill="#DCE5E5"/>
<path d="M33.8293 23.3143C33.8293 23.3143 34.515 23.0096 35.5055 23.0096C36.0388 23.0096 36.496 23.0858 36.496 23.5429C36.496 23.8477 36.4198 23.9239 36.4198 23.9239C36.4198 23.9239 35.9626 23.9239 35.7341 23.9239C34.4388 23.9239 32.9912 24.4572 32.9912 26.2096C32.9912 27.581 33.9055 27.8858 34.4388 27.8858C35.5055 27.8858 35.9626 27.2001 36.0388 27.2001L35.9626 27.8096H37.3341L37.9436 23.6191C37.9436 21.8667 36.4198 21.7905 35.8103 21.7905L33.8293 23.3143ZM36.9531 25.0667C36.9531 25.2953 36.0388 26.5143 35.1245 26.5143C34.6674 26.5143 34.515 26.1334 34.515 25.9048C34.515 25.5239 34.7436 24.9905 35.8865 24.9905C36.1912 25.0667 36.9531 25.0667 36.9531 25.0667Z" fill="#DCE5E5"/>
<path d="M37.6392 27.7334H39.2392C39.6963 25.2191 39.7725 23.162 40.8392 23.5429C40.9915 22.5524 41.2201 22.1715 41.3725 21.7905C41.3725 21.7905 41.2963 21.7905 41.0677 21.7905C40.382 21.7905 39.8487 22.7048 39.8487 22.7048L40.0011 21.8667" fill="#DCE5E5"/>
</g>
<defs>
<clipPath id="clip0_812_900">
<rect width="48" height="48" fill="white"/>
</clipPath>
</defs>
</symbol>

<symbol viewBox="0 0 116 13.6328" fill="none" xmlns="http://www.w3.org/2000/svg" xmlns:xlink="http://www.w3.org/1999/xlink" id="robokassa">
	<desc>
			Created with Pixso.
	</desc>
	<defs>
		<clipPath id="clip944_1178">
			<rect id="robokassa-1 (3)" rx="0.000000" width="115.000000" height="12.632739" transform="translate(0.500000 0.500000)" fill="white" fill-opacity="0"/>
		</clipPath>
	</defs>
	<rect id="robokassa-1 (3)" rx="0.000000" width="115.000000" height="12.632739" transform="translate(0.500000 0.500000)" fill="#FFFFFF" fill-opacity="0"/>
	<g clip-path="url(#clip944_1178)">
		<path id="Shape" d="M1.15 0.17C0.7 0.37 0.3 0.8 0.13 1.25C0.04 1.48 0 3.65 0 7.61L0 13.63L2.79 13.63L2.79 9.85L6.52 9.85L7.49 11.74L8.45 13.63L10.07 13.63C10.95 13.63 11.68 13.59 11.68 13.55C11.68 13.51 11.18 12.51 10.56 11.34L9.45 9.2L9.75 9.01C11.39 7.93 12.12 5.8 11.68 3.37C11.4 1.88 10.68 0.83 9.58 0.35C8.95 0.07 8.84 0.06 5.23 0.03C2.31 0.01 1.44 0.03 1.15 0.17ZM8.21 2.92C8.41 2.99 8.6 3.21 8.71 3.49C8.94 4.04 8.97 5.44 8.76 5.85C8.24 6.86 7.59 7.06 4.84 7.06L2.79 7.06L2.79 2.79L5.34 2.79C6.74 2.79 8.03 2.84 8.21 2.92ZM15.82 0.1C14.61 0.47 13.75 1.33 13.38 2.51C13.09 3.46 12.78 5.7 12.78 6.79C12.78 7.83 13.07 9.96 13.32 10.83C13.77 12.33 14.54 13.09 15.95 13.46C16.56 13.62 17.21 13.64 19.28 13.6C21.65 13.57 21.89 13.53 22.49 13.27C24.21 12.51 24.95 10.56 24.95 6.81C24.94 2.87 24.17 0.92 22.35 0.25C21.71 0.02 21.43 0 18.89 0.01C17.36 0.01 15.99 0.06 15.82 0.1ZM21.48 3.07C22.29 4.19 22.28 9.71 21.45 10.52C21.21 10.78 16.52 10.79 16.32 10.55C15.75 9.85 15.54 5.85 15.98 3.98C16.16 3.23 16.26 3 16.46 2.92C16.61 2.86 17.77 2.82 19.02 2.83C21.08 2.86 21.33 2.88 21.48 3.07ZM27.58 0.26C27.31 0.42 26.98 0.74 26.85 0.97C26.6 1.38 26.59 1.6 26.55 6.47C26.53 9.87 26.57 11.7 26.65 12.05C26.86 12.8 27.39 13.35 28.12 13.49C28.88 13.66 34.25 13.66 35.21 13.51C37.08 13.2 38.05 12.11 38.18 10.1C38.26 8.97 38.08 8.13 37.61 7.37L37.25 6.82L37.7 5.95C38.14 5.11 38.16 5.02 38.16 3.84C38.16 2.83 38.09 2.5 37.87 2C37.52 1.24 37.09 0.79 36.33 0.38L35.72 0.06L31.89 0.02C28.09 0 28.05 0 27.58 0.26ZM35.11 2.94C35.28 3.11 35.39 3.93 35.28 4.3C35.22 4.52 35.03 4.83 34.86 5C34.55 5.29 34.5 5.29 32 5.33L29.45 5.36L29.45 2.78L32.24 2.82C33.77 2.84 35.06 2.89 35.11 2.94ZM34.58 8.37C35.06 8.56 35.33 9.09 35.32 9.78C35.31 10.22 35.25 10.44 35.1 10.55C34.94 10.67 34.17 10.71 32.16 10.71L29.45 10.71L29.45 8.13L31.86 8.17C33.18 8.21 34.41 8.3 34.58 8.37ZM42.26 0.25C41.08 0.71 40.48 1.54 40.02 3.37C39.79 4.29 39.75 4.78 39.75 6.81C39.75 9.03 39.77 9.27 40.08 10.4C40.46 11.78 40.81 12.37 41.51 12.9C42.39 13.52 42.66 13.57 45.76 13.57C48.87 13.57 49.13 13.52 50.01 12.9C50.72 12.37 51.07 11.78 51.45 10.4C51.75 9.27 51.77 9.03 51.77 6.81C51.77 4.78 51.74 4.29 51.51 3.37C51.04 1.52 50.45 0.7 49.23 0.25C48.61 0.02 48.31 0 45.73 0.01C43.18 0.01 42.84 0.03 42.26 0.25ZM48.12 2.92C48.45 3.04 48.6 3.42 48.83 4.79C49.12 6.48 48.87 9.67 48.38 10.41C48.2 10.71 48.18 10.71 45.76 10.71C42.91 10.71 43.08 10.79 42.77 9.17C42.32 6.93 42.68 3.2 43.36 2.92C43.73 2.77 47.73 2.77 48.12 2.92Z" fill="#276EB8" fill-opacity="1.000000" fill-rule="nonzero"/>
		<path id="Shape" d="M54.05 0.37L53.67 0.75L53.67 12.8L54.03 13.15C54.34 13.46 54.48 13.51 55.1 13.51C55.7 13.51 55.87 13.46 56.08 13.23C56.51 12.78 56.6 12.25 56.6 10.13L56.6 8.15L58.39 8.15L59.29 8.93C61.09 10.48 61.71 11.3 61.71 12.13C61.71 12.59 61.77 12.74 62.12 13.09C62.49 13.46 62.61 13.51 63.16 13.51C63.67 13.51 63.84 13.45 64.17 13.15C64.56 12.81 64.57 12.76 64.56 11.87C64.54 11.11 64.48 10.83 64.17 10.18C63.74 9.33 62.5 7.81 61.72 7.19L61.21 6.79L62 6.07C62.95 5.19 63.83 4.06 64.24 3.17C64.47 2.66 64.54 2.3 64.56 1.61C64.57 0.74 64.56 0.69 64.17 0.35C63.81 0.03 63.68 0 63 0C62.29 0 62.18 0.03 61.96 0.31C61.79 0.53 61.71 0.81 61.71 1.18C61.71 1.47 61.64 1.88 61.54 2.1C61.33 2.61 60.41 3.62 59.29 4.58L58.39 5.35L56.6 5.35L56.6 3.37C56.6 2.28 56.54 1.19 56.47 0.94C56.29 0.29 55.85 0 55.06 0C54.51 0 54.37 0.04 54.05 0.37ZM69.55 0.17C67.9 0.69 67 1.86 66.37 4.24C66.08 5.31 66.05 5.68 66 8.77C65.93 12.42 65.98 12.82 66.54 13.26C66.94 13.58 67.98 13.59 68.35 13.29C68.79 12.93 68.89 12.59 68.89 11.33L68.89 10.1L75.22 10.1L75.22 11.45C75.22 12.78 75.22 12.8 75.57 13.15C75.89 13.46 76.02 13.51 76.62 13.51C77.24 13.51 77.35 13.47 77.68 13.12L78.03 12.73L78 8.83C77.95 5.23 77.92 4.85 77.68 4.04C77.09 2.11 76.24 0.91 75.1 0.37C74.46 0.08 74.29 0.06 72.24 0.03C70.68 0.01 69.9 0.04 69.55 0.17ZM73.75 2.93C74.42 3.16 74.99 4.63 75.15 6.47L75.21 7.3L68.85 7.3L68.94 6.32C69.08 4.61 69.75 3 70.37 2.88C70.97 2.77 73.38 2.81 73.75 2.93ZM81.85 0.17C80.66 0.54 79.99 1.13 79.58 2.19C79.37 2.72 79.31 3.11 79.31 4.07C79.31 6.02 79.89 7.13 81.27 7.8C81.82 8.06 82.04 8.09 84.43 8.15C86.92 8.21 87.03 8.22 87.29 8.49C87.65 8.84 87.68 9.88 87.35 10.38L87.15 10.71L83.87 10.71C80.78 10.71 80.59 10.72 80.3 10.95C79.61 11.49 79.59 12.65 80.23 13.2L80.6 13.51L84.14 13.51C86.11 13.51 87.89 13.45 88.13 13.38C88.8 13.2 89.52 12.5 89.97 11.58C90.35 10.82 90.37 10.71 90.37 9.43C90.37 8.24 90.34 8.02 90.06 7.42C89.66 6.57 89.11 5.93 88.51 5.64C88.12 5.45 87.67 5.4 85.29 5.35C82.06 5.28 82.16 5.33 82.16 4.07C82.16 2.81 81.98 2.87 85.86 2.79L89.22 2.73L89.55 2.41C89.84 2.11 89.87 1.97 89.92 1.04L89.98 0L86.16 0.01C83.44 0.01 82.21 0.06 81.85 0.17ZM93.9 0.17C93.64 0.25 93.26 0.41 93.05 0.51C91.48 1.33 90.82 4.11 91.73 6.08C92.1 6.91 92.52 7.35 93.3 7.76C93.88 8.08 93.98 8.09 96.34 8.13C97.68 8.14 98.92 8.22 99.1 8.28C99.53 8.45 99.73 9.08 99.62 9.81C99.49 10.73 99.59 10.71 95.9 10.71L92.6 10.71L92.25 11.06C91.94 11.38 91.9 11.51 91.9 12.11C91.9 12.7 91.94 12.84 92.25 13.15L92.6 13.51L96.28 13.51C100.37 13.51 100.46 13.49 101.32 12.68C102.06 11.96 102.4 11.11 102.46 9.71C102.53 8.09 102.23 7.14 101.33 6.25C100.93 5.85 100.52 5.57 100.22 5.48C99.95 5.41 98.74 5.35 97.48 5.35C96.23 5.35 95.05 5.31 94.84 5.28C94.4 5.19 94.21 4.82 94.21 4.07C94.21 3.33 94.4 2.95 94.84 2.87C95.05 2.83 96.52 2.79 98.13 2.79C101.91 2.79 102 2.75 102 0.91L102 0L98.2 0.01C95.49 0.01 94.25 0.06 93.9 0.17ZM107.25 0.24C106.89 0.36 106.4 0.62 106.17 0.8C105.2 1.54 104.32 3.49 104.08 5.47C103.9 6.86 103.91 12.26 104.08 12.76C104.25 13.24 104.74 13.51 105.45 13.51C105.89 13.51 106.09 13.43 106.41 13.15L106.81 12.8L106.84 11.45L106.89 10.1L113.05 10.1L113.1 11.45L113.14 12.8L113.54 13.15C113.85 13.45 114.04 13.51 114.54 13.51C115.03 13.51 115.22 13.45 115.53 13.15L115.93 12.8L115.92 8.98C115.91 5.48 115.9 5.1 115.66 4.22C115.11 2.21 114.29 0.99 113.11 0.41C112.42 0.07 112.36 0.06 110.15 0.03C108.17 0 107.83 0.02 107.25 0.24ZM112.11 3.28C112.6 3.85 112.97 5.07 113.04 6.29L113.11 7.3L106.87 7.3L106.87 6.56C106.87 5.01 107.55 3.21 108.23 2.92C108.39 2.86 109.24 2.82 110.14 2.83L111.76 2.86L112.11 3.28Z" fill="#D61E2F" fill-opacity="1.000000" fill-rule="nonzero"/>
	</g>
</symbol>

<symbol viewBox="0 0 32 32" fill="none" xmlns="http://www.w3.org/2000/svg" id="google">
<g clip-path="url(#clip0_426_466)">
<path d="M16 32C24.8366 32 32 24.8366 32 16C32 7.16344 24.8366 0 16 0C7.16344 0 0 7.16344 0 16C0 24.8366 7.16344 32 16 32Z" fill="#E3411F"/>
<path d="M16.5328 17.2C16.0661 16.8667 15.1995 16.0667 15.1995 15.6667C15.1995 15.1333 15.3328 14.8667 16.1328 14.2C16.9328 13.5333 17.5328 12.6667 17.5328 11.6C17.5328 10.3333 16.9995 9.13334 15.9328 8.66667H17.5328L18.6661 7.86667H13.6661C11.3995 7.86667 9.26615 9.6 9.26615 11.5333C9.26615 13.5333 10.7995 15.2 13.0661 15.2C13.1995 15.2 13.3995 15.2 13.5328 15.2C13.3995 15.4667 13.2661 15.8 13.2661 16.1333C13.2661 16.6667 13.5995 17.1333 13.9328 17.5333C13.6661 17.5333 13.3328 17.5333 13.0661 17.5333C10.2661 17.5333 8.13281 19.3333 8.13281 21.1333C8.13281 22.9333 10.4661 24.0667 13.2661 24.0667C16.4661 24.0667 18.1995 22.2667 18.1995 20.4667C18.2661 19.0667 17.8661 18.1333 16.5328 17.2ZM13.7995 14.7333C12.5328 14.6667 11.2661 13.2667 11.0661 11.6C10.8661 9.86667 11.7328 8.6 12.9995 8.66667C14.2661 8.73334 15.5328 10.0667 15.7328 11.8C15.9995 13.4 15.1328 14.7333 13.7995 14.7333ZM13.3328 23.3333C11.3995 23.3333 9.99948 22.1333 9.99948 20.6667C9.99948 19.2 11.7328 18 13.6661 18.0667C14.1328 18.0667 14.5328 18.1333 14.9328 18.2667C15.9995 19 16.7328 19.4 16.9328 20.2667C16.9995 20.4667 16.9995 20.6 16.9995 20.8C16.9995 22.1333 15.9995 23.3333 13.3328 23.3333Z" fill="white"/>
<path d="M21.8654 14.8667V12.9333H20.2654V14.8667H18.332V16.4H20.2654V18.4H21.8654V16.4H23.7987V14.8667H21.8654Z" fill="white"/>
</g>
<defs>
<clipPath id="clip0_426_466">
<rect width="32" height="32" fill="white"/>
</clipPath>
</defs>
</symbol>

<symbol viewBox="0 0 24 24" fill="none" xmlns="http://www.w3.org/2000/svg" xmlns:xlink="http://www.w3.org/1999/xlink" id="close">
	<defs>
		<clipPath id="clip426_455">
			<rect id="close" rx="0.000000" width="23.000000" height="23.000000" transform="translate(0.500000 0.500000)" fill="white" fill-opacity="0"/>
		</clipPath>
	</defs>
	<rect id="close" rx="0.000000" width="23.000000" height="23.000000" transform="translate(0.500000 0.500000)" fill="#FFFFFF" fill-opacity="0"/>
	<g clip-path="url(#clip426_455)">
		<path id="Vector" d="M24 12C24 18.62 18.62 24 12 24C5.37 24 0 18.62 0 12C0 5.37 5.37 0 12 0C18.62 0 24 5.37 24 12Z" fill="#000000" fill-opacity="1.000000" fill-rule="evenodd"/>
		<path id="Vector" d="M7.67 16.32L12 12L16.32 7.67" stroke="#FFFFFF" stroke-opacity="1.000000" stroke-width="2.000000" stroke-linecap="round"/>
		<path id="Vector" d="M7.67 7.67L12 12L16.32 16.32" stroke="#FFFFFF" stroke-opacity="1.000000" stroke-width="2.000000" stroke-linecap="round"/>
	</g>
</symbol>











</svg>
